<?xml version="1.0" standalone="no"?>
<!DOCTYPE svg PUBLIC "-//W3C//DTD SVG 20010904//EN"
 "http://www.w3.org/TR/2001/REC-SVG-20010904/DTD/svg10.dtd">
<svg version="1.0" xmlns="http://www.w3.org/2000/svg"
 width="2100.000000pt" height="2770.000000pt" viewBox="0 0 2100.000000 2770.000000"
 preserveAspectRatio="xMidYMid meet">

<g transform="translate(0.000000,2770.000000) scale(0.100000,-0.100000)"
fill="#000000" stroke="none">
<path d="M760 18610 l0 -8330 5093 5 c2800 2 5189 7 5307 10 118 3 224 10 235
15 19 9 73 13 378 26 70 3 127 9 127 15 0 5 40 9 89 9 50 0 93 5 96 10 3 6 39
10 80 10 41 0 77 4 80 10 3 5 44 10 91 10 49 0 84 4 84 10 0 6 23 10 50 10 28
0 50 5 50 10 0 6 23 10 50 10 28 0 50 5 50 10 0 6 23 10 50 10 28 0 50 5 50
10 0 6 23 10 50 10 28 0 50 5 50 10 0 6 23 10 50 10 28 0 50 5 50 10 0 6 18
10 39 10 22 0 43 4 46 10 3 6 26 10 51 10 24 0 44 5 44 10 0 6 23 10 50 10 28
0 50 5 50 10 0 6 20 10 44 10 25 0 48 4 51 10 3 6 19 10 36 10 16 0 29 5 29
10 0 6 13 10 29 10 17 0 33 5 36 10 3 6 26 10 51 10 24 0 44 5 44 10 0 6 14
10 30 10 17 0 30 5 30 10 0 6 13 10 29 10 17 0 33 5 36 10 3 5 22 10 41 10 19
0 34 5 34 10 0 6 14 10 30 10 17 0 30 5 30 10 0 6 14 10 30 10 17 0 30 5 30
10 0 6 14 10 30 10 17 0 30 5 30 10 0 6 13 10 29 10 17 0 33 5 36 10 3 6 17
10 31 10 13 0 24 5 24 10 0 6 9 10 20 10 11 0 20 5 20 10 0 6 14 10 30 10 17
0 30 5 30 10 0 6 9 10 20 10 11 0 20 5 20 10 0 6 9 10 20 10 11 0 20 5 20 10
0 6 14 10 30 10 17 0 30 5 30 10 0 6 9 10 20 10 11 0 20 5 20 10 0 6 13 10 28
10 16 0 34 8 42 20 8 11 22 20 32 20 10 0 18 5 18 10 0 6 14 10 30 10 17 0 30
5 30 10 0 6 9 10 20 10 11 0 20 3 20 8 0 8 48 32 65 32 6 0 17 9 25 20 8 11
22 20 32 20 10 0 18 5 18 10 0 6 8 10 18 10 10 0 24 9 32 20 8 11 22 20 32 20
10 0 18 5 18 10 0 6 8 10 18 10 10 0 24 9 32 20 8 11 22 20 32 20 10 0 18 5
18 10 0 6 8 10 18 10 10 0 24 9 32 20 8 11 21 20 30 20 9 0 22 9 30 20 8 11
22 20 32 20 10 0 18 5 18 10 0 6 7 10 16 10 9 0 29 14 44 30 15 17 33 30 39
30 6 0 25 13 43 30 17 16 37 30 44 30 8 0 14 5 14 10 0 6 7 10 16 10 9 0 29
14 44 30 15 17 32 30 37 30 4 0 22 14 40 30 18 17 37 30 43 30 6 0 33 23 60
50 27 28 54 50 59 50 6 0 25 13 43 30 17 16 35 30 39 30 5 0 45 36 90 80 44
44 85 80 90 80 11 0 399 388 399 399 0 4 36 44 80 90 44 46 80 88 80 93 0 5
18 27 40 48 22 21 40 44 40 50 0 7 13 25 30 40 17 15 30 33 30 40 0 7 14 25
30 40 17 15 30 32 30 38 0 5 12 22 28 39 43 47 56 74 41 84 -8 4 -10 12 -5 16
5 4 11 2 13 -4 6 -17 23 -16 23 1 0 7 14 27 30 44 17 18 30 38 30 45 0 7 9 19
20 27 11 8 20 21 20 29 0 7 8 21 18 30 9 9 23 28 31 44 8 15 18 27 23 27 4 0
8 8 8 18 0 10 9 24 20 32 11 8 20 22 20 32 0 10 5 18 10 18 6 0 10 6 10 13 0
7 9 23 20 35 11 12 20 28 20 37 0 8 5 15 10 15 6 0 10 8 10 18 0 10 9 24 20
32 11 8 20 22 20 32 0 10 4 18 9 18 5 0 14 14 21 30 7 17 16 30 21 30 5 0 9 9
9 20 0 11 5 20 10 20 6 0 10 9 10 20 0 11 5 20 10 20 6 0 10 9 10 20 0 11 5
20 10 20 6 0 10 9 10 20 0 11 5 20 10 20 6 0 10 8 10 18 0 10 9 24 20 32 11 8
20 22 20 32 0 10 5 18 10 18 6 0 10 9 10 20 0 11 5 20 10 20 6 0 10 9 10 20 0
11 5 20 10 20 6 0 10 9 10 20 0 11 5 20 10 20 6 0 10 9 10 20 0 11 5 20 10 20
6 0 10 9 10 19 0 23 40 101 52 101 4 0 8 11 8 24 0 14 5 28 10 31 6 3 10 15
10 26 0 10 5 19 10 19 6 0 10 11 10 24 0 14 5 28 10 31 6 3 10 15 10 26 0 10
5 19 10 19 6 0 10 14 10 30 0 17 5 30 10 30 6 0 10 9 10 20 0 11 5 20 10 20 6
0 10 9 10 20 0 11 5 20 10 20 6 0 10 14 10 30 0 17 5 30 10 30 6 0 10 9 10 19
0 11 5 23 10 26 5 3 10 17 10 31 0 13 5 24 10 24 6 0 10 14 10 30 0 17 5 30
10 30 6 0 10 14 10 30 0 17 5 30 10 30 6 0 10 9 10 20 0 11 5 20 10 20 6 0 10
13 10 29 0 17 5 33 10 36 6 3 10 17 10 31 0 13 5 24 10 24 6 0 10 14 10 30 0
17 5 30 10 30 6 0 10 15 10 34 0 19 5 38 10 41 6 3 10 19 10 36 0 16 5 29 10
29 6 0 10 15 10 34 0 19 5 38 10 41 5 3 10 19 10 36 0 16 5 29 10 29 6 0 10
14 10 30 0 17 5 30 10 30 6 0 10 18 10 40 0 22 5 40 10 40 6 0 10 20 10 44 0
25 5 48 10 51 5 3 10 28 10 56 0 27 5 49 10 49 6 0 10 20 10 44 0 25 5 48 10
51 5 3 10 21 10 40 0 19 5 37 10 40 5 3 10 28 10 56 0 27 5 49 10 49 6 0 10
27 10 60 0 33 4 60 10 60 6 0 10 27 10 60 0 33 4 60 10 60 6 0 10 33 10 80 0
47 4 80 10 80 6 0 10 30 10 69 0 39 5 73 10 76 6 3 10 52 10 110 0 58 4 107
10 110 6 4 10 55 10 121 0 69 4 114 10 114 7 0 10 200 10 580 0 380 -3 580
-10 580 -6 0 -10 43 -10 109 0 63 -4 112 -10 116 -6 4 -10 57 -10 125 0 68 -4
121 -10 125 -5 3 -10 35 -10 70 0 35 -4 67 -10 70 -5 3 -10 37 -10 76 0 39 -4
69 -10 69 -6 0 -10 30 -10 70 0 40 -4 70 -10 70 -6 0 -10 26 -10 59 0 33 -5
63 -10 66 -5 3 -10 31 -10 61 0 30 -4 54 -10 54 -5 0 -10 18 -10 39 0 22 -4
43 -10 46 -5 3 -10 28 -10 55 0 27 -4 52 -10 55 -5 3 -10 24 -10 45 0 21 -4
42 -10 45 -5 3 -10 26 -10 51 0 24 -4 44 -10 44 -5 0 -10 18 -10 40 0 22 -4
40 -10 40 -5 0 -10 14 -10 30 0 17 -4 30 -9 30 -5 0 -12 16 -15 35 -3 19 -9
51 -12 70 -3 19 -10 35 -15 35 -5 0 -9 15 -9 34 0 19 -4 38 -10 41 -5 3 -10
19 -10 36 0 16 -4 29 -10 29 -5 0 -10 14 -10 30 0 17 -4 30 -10 30 -5 0 -10 9
-10 20 0 11 -4 20 -10 20 -5 0 -10 13 -10 29 0 17 -4 33 -10 36 -5 3 -10 17
-10 31 0 13 -4 24 -10 24 -5 0 -10 14 -10 30 0 17 -4 30 -10 30 -5 0 -10 14
-10 30 0 17 -4 30 -10 30 -5 0 -10 14 -10 30 0 17 -4 30 -10 30 -5 0 -10 9
-10 19 0 11 -4 23 -10 26 -5 3 -10 17 -10 31 0 13 -4 24 -10 24 -5 0 -10 9
-10 20 0 11 -9 35 -20 55 -11 20 -20 42 -20 50 0 8 -4 15 -10 15 -5 0 -10 14
-10 30 0 17 -4 30 -10 30 -5 0 -10 9 -10 20 0 11 -4 20 -10 20 -5 0 -10 10
-10 23 0 13 -9 33 -20 45 -11 12 -20 32 -20 44 0 13 -9 30 -20 38 -12 8 -20
26 -20 42 0 15 -4 28 -10 28 -5 0 -10 9 -10 20 0 11 -4 20 -10 20 -5 0 -10 9
-10 20 0 11 -4 20 -10 20 -5 0 -10 9 -10 20 0 11 -4 20 -10 20 -5 0 -10 9 -10
19 0 11 -3 21 -7 23 -10 4 -42 57 -50 81 -3 9 -9 17 -14 17 -5 0 -9 9 -9 20 0
11 -4 20 -10 20 -5 0 -10 9 -10 20 0 11 -4 20 -10 20 -5 0 -10 9 -10 20 0 11
-4 20 -10 20 -5 0 -10 9 -10 20 0 11 -4 20 -9 20 -5 0 -14 14 -21 30 -7 17
-16 30 -21 30 -5 0 -9 8 -9 18 0 10 -9 24 -20 32 -11 8 -20 21 -20 30 0 9 -9
22 -20 30 -11 8 -20 21 -20 30 0 9 -9 22 -20 30 -11 8 -20 22 -20 32 0 10 -4
18 -10 18 -5 0 -10 8 -10 18 0 10 -9 24 -20 32 -11 8 -20 21 -20 30 0 9 -9 22
-20 30 -11 8 -20 20 -20 27 0 7 -13 27 -30 45 -16 17 -30 37 -30 44 0 8 -4 14
-10 14 -5 0 -10 6 -10 14 0 7 -13 27 -30 44 -16 18 -30 37 -30 42 0 6 -11 22
-25 36 -14 14 -25 29 -25 34 0 5 -11 20 -25 34 -14 14 -25 30 -25 36 0 7 -18
29 -40 50 -22 21 -40 44 -40 50 0 6 -18 29 -40 50 -22 21 -40 43 -40 49 0 6
-18 30 -40 52 -22 23 -40 46 -40 51 0 15 -27 38 -44 38 -9 0 -16 7 -16 16 0 8
-23 37 -50 64 -28 27 -50 55 -50 62 0 7 -18 26 -40 41 -22 16 -40 33 -40 38 0
12 -248 259 -260 259 -5 0 -41 32 -79 70 -39 39 -76 70 -82 70 -6 0 -28 18
-49 40 -21 22 -44 40 -50 40 -6 0 -29 18 -50 40 -21 22 -45 40 -52 40 -7 0
-20 9 -28 20 -8 11 -20 20 -26 20 -7 0 -33 20 -58 44 -25 24 -54 47 -66 51
-11 3 -20 11 -20 16 0 5 -8 9 -18 9 -10 0 -24 9 -32 20 -8 11 -20 20 -26 20
-6 0 -25 14 -42 30 -18 17 -43 30 -57 30 -18 0 -25 5 -25 20 0 13 -7 20 -20
20 -11 0 -20 4 -20 9 0 5 -13 14 -30 21 -16 7 -30 16 -30 21 0 5 -8 9 -18 9
-10 0 -24 9 -32 20 -8 11 -22 20 -32 20 -10 0 -18 5 -18 10 0 6 -9 10 -20 10
-11 0 -20 5 -20 10 0 6 -7 10 -15 10 -9 0 -25 9 -37 20 -12 11 -28 20 -35 20
-7 0 -13 5 -13 10 0 6 -9 10 -20 10 -11 0 -20 5 -20 10 0 6 -9 10 -20 10 -11
0 -20 5 -20 10 0 6 -9 10 -20 10 -11 0 -20 5 -20 10 0 6 -9 10 -20 10 -11 0
-20 5 -20 10 0 6 -9 10 -20 10 -11 0 -20 5 -20 10 0 6 -9 10 -20 10 -11 0 -20
4 -20 9 0 5 -13 11 -29 14 -16 3 -36 13 -44 22 -9 8 -27 15 -41 15 -14 0 -26
5 -26 10 0 6 -9 10 -20 10 -11 0 -20 5 -20 10 0 6 -9 10 -20 10 -11 0 -20 5
-20 10 0 6 -9 10 -20 10 -11 0 -20 5 -20 10 0 6 -13 10 -30 10 -16 0 -30 5
-30 10 0 6 -13 10 -30 10 -16 0 -30 5 -30 10 0 6 -9 10 -20 10 -11 0 -20 5
-20 10 0 6 -13 10 -30 10 -16 0 -30 5 -30 10 0 6 -13 10 -30 10 -16 0 -30 5
-30 10 0 6 -9 10 -20 10 -11 0 -20 5 -20 10 0 6 -18 10 -40 10 -22 0 -40 5
-40 10 0 6 -13 10 -30 10 -16 0 -30 5 -30 10 0 6 -13 10 -30 10 -16 0 -30 5
-30 10 0 6 -13 10 -30 10 -16 0 -30 5 -30 10 0 6 -13 10 -30 10 -16 0 -30 5
-30 10 0 6 -18 10 -40 10 -22 0 -40 5 -40 10 0 6 -15 10 -34 10 -19 0 -38 5
-41 10 -3 6 -24 10 -46 10 -21 0 -39 5 -39 10 0 6 -13 10 -30 10 -16 0 -30 5
-30 10 0 6 -18 10 -40 10 -22 0 -40 5 -40 10 0 6 -18 10 -40 10 -22 0 -40 5
-40 10 0 6 -22 10 -50 10 -27 0 -50 5 -50 10 0 6 -22 10 -50 10 -27 0 -50 5
-50 10 0 6 -27 10 -60 10 -33 0 -60 4 -60 10 0 6 -27 10 -60 10 -33 0 -60 4
-60 10 0 6 -27 10 -60 10 -33 0 -60 4 -60 10 0 6 -27 10 -60 10 -33 0 -60 4
-60 10 0 6 -27 10 -60 10 -33 0 -60 4 -60 10 0 6 -30 10 -70 10 -40 0 -70 4
-70 10 0 6 -33 10 -80 10 -47 0 -80 4 -80 10 0 6 -40 10 -100 10 -60 0 -100 4
-100 10 0 6 -40 10 -100 10 -60 0 -100 4 -100 10 0 6 -67 10 -180 10 -113 0
-180 4 -180 10 0 6 -83 10 -230 10 -147 0 -230 4 -230 10 0 7 -847 10 -2520
10 l-2520 0 0 -5860 0 -5860 28 -7 c34 -10 3982 -8 4797 2 333 4 604 11 609
16 6 5 68 9 138 9 79 0 128 4 128 10 0 6 41 10 104 10 59 0 108 4 111 10 3 5
39 10 80 10 41 0 77 5 80 10 3 6 42 10 86 10 46 0 79 4 79 10 0 6 28 10 64 10
36 0 68 5 71 10 3 6 28 10 56 10 27 0 49 4 49 9 0 5 28 12 63 15 107 9 157 18
157 27 0 5 23 9 50 9 28 0 50 5 50 10 0 6 23 10 50 10 28 0 50 5 50 10 0 6 18
10 40 10 22 0 40 5 40 10 0 6 18 10 40 10 22 0 40 5 40 10 0 6 18 10 40 10 22
0 40 5 40 10 0 6 15 10 34 10 19 0 38 5 41 10 3 6 15 10 26 10 10 0 28 4 39
10 11 5 29 14 40 20 11 6 29 10 40 10 11 0 20 5 20 10 0 6 14 10 30 10 17 0
30 5 30 10 0 6 11 10 24 10 14 0 28 5 31 10 3 6 13 10 21 10 9 0 22 7 31 15 8
9 28 19 44 22 16 3 29 9 29 14 0 5 9 9 20 9 11 0 20 5 20 10 0 6 9 10 20 10
11 0 20 5 20 10 0 6 9 10 20 10 11 0 20 5 20 10 0 6 7 10 15 10 9 0 25 9 37
20 12 11 28 20 35 20 7 0 13 5 13 10 0 6 9 10 20 10 11 0 20 5 20 10 0 6 8 10
18 10 10 0 24 9 32 20 8 11 20 20 27 20 7 0 27 14 45 30 17 17 37 30 44 30 8
0 14 5 14 10 0 6 7 10 16 10 9 0 29 13 44 30 15 16 33 30 40 30 6 0 29 18 50
40 21 22 44 40 50 40 15 0 480 466 480 481 0 6 13 24 30 39 16 15 30 35 30 44
0 9 4 16 10 16 5 0 9 10 7 23 -2 17 3 22 21 20 15 -2 22 3 22 15 0 10 9 24 20
32 11 8 20 21 20 30 0 9 9 22 20 30 11 8 20 21 20 30 0 9 9 22 20 30 11 8 20
21 20 30 0 9 9 22 20 30 11 8 20 21 20 30 0 9 9 22 20 30 11 8 20 22 20 32 0
10 5 18 10 18 6 0 10 8 10 18 0 10 9 24 20 32 11 8 20 21 20 30 0 9 9 22 20
30 11 8 20 22 20 32 0 10 5 18 10 18 6 0 10 9 10 20 0 11 5 20 10 20 6 0 10 9
10 20 0 11 5 20 10 20 6 0 10 9 10 20 0 11 5 20 10 20 6 0 10 9 10 20 0 11 5
20 10 20 6 0 10 9 10 20 0 11 5 20 10 20 6 0 10 9 10 20 0 11 5 20 10 20 6 0
10 9 10 20 0 11 5 20 10 20 6 0 10 9 10 20 0 11 5 20 10 20 6 0 10 9 10 20 0
11 5 20 10 20 6 0 10 14 10 30 0 17 5 30 10 30 6 0 10 9 10 20 0 11 5 20 10
20 6 0 10 9 10 20 0 11 5 20 10 20 6 0 10 14 10 30 0 17 5 30 10 30 6 0 10 9
10 19 0 11 5 23 10 26 5 3 10 19 10 35 0 16 4 32 10 35 6 3 10 15 10 26 0 10
5 19 10 19 6 0 10 14 10 30 0 17 5 30 10 30 6 0 10 14 10 30 0 17 5 30 10 30
6 0 10 14 10 30 0 17 5 30 10 30 6 0 10 14 10 30 0 17 5 30 10 30 6 0 10 18
10 40 0 22 5 40 10 40 6 0 10 14 10 30 0 17 5 30 10 30 6 0 10 18 10 39 0 22
5 43 10 46 6 3 10 22 10 41 0 19 5 34 10 34 6 0 10 23 10 50 0 28 5 50 10 50
6 0 10 24 10 54 0 30 5 58 10 61 6 3 10 26 10 50 0 24 5 47 10 50 5 3 10 37
10 75 0 38 4 72 10 75 5 3 10 40 10 81 0 43 4 74 10 74 6 0 10 46 10 119 0 69
4 122 10 126 13 8 14 987 1 1001 -6 5 -12 61 -15 124 -3 63 -10 153 -16 200
-6 47 -13 117 -16 155 -3 39 -10 74 -15 79 -5 6 -9 34 -9 63 0 29 -4 53 -10
53 -5 0 -10 23 -10 50 0 28 -4 50 -10 50 -5 0 -10 22 -10 49 0 28 -4 53 -10
56 -5 3 -10 26 -10 51 0 24 -4 44 -10 44 -5 0 -10 18 -10 40 0 22 -4 40 -10
40 -5 0 -10 18 -10 40 0 22 -4 40 -10 40 -5 0 -10 14 -10 30 0 17 -4 30 -10
30 -5 0 -10 14 -10 30 0 17 -4 30 -10 30 -5 0 -10 14 -10 30 0 17 -4 30 -10
30 -5 0 -10 14 -10 30 0 17 -4 30 -10 30 -5 0 -10 11 -10 24 0 14 -4 28 -10
31 -6 3 -10 15 -10 26 0 10 -4 19 -10 19 -5 0 -10 13 -10 29 0 17 -5 33 -10
36 -6 3 -10 17 -10 31 0 13 -4 24 -10 24 -5 0 -10 9 -10 20 0 11 -4 20 -10 20
-5 0 -10 11 -10 24 0 14 -4 28 -10 31 -5 3 -10 15 -10 26 0 10 -4 19 -10 19
-5 0 -10 9 -10 20 0 11 -4 20 -10 20 -5 0 -10 11 -10 25 0 14 -9 35 -20 47
-11 12 -20 32 -20 45 0 13 -4 23 -10 23 -5 0 -10 9 -10 20 0 11 -4 20 -10 20
-5 0 -10 9 -10 20 0 11 -4 20 -10 20 -5 0 -10 6 -10 13 0 6 -9 23 -20 37 -11
14 -20 33 -20 43 0 10 -9 27 -20 39 -11 12 -20 28 -20 35 0 7 -4 13 -10 13 -5
0 -10 8 -10 18 0 10 -9 24 -20 32 -11 8 -20 22 -20 32 0 10 -4 18 -8 18 -5 0
-15 12 -23 28 -8 15 -22 34 -31 43 -10 9 -18 24 -18 33 0 9 -4 16 -8 16 -5 0
-15 12 -23 28 -8 15 -22 34 -31 43 -10 9 -18 24 -18 33 0 9 -4 16 -8 16 -5 0
-15 12 -23 28 -8 15 -22 34 -31 43 -10 9 -18 21 -18 27 0 5 -14 24 -30 42 -17
18 -30 38 -30 46 0 8 -10 14 -25 14 -22 0 -25 3 -19 24 5 20 -3 33 -40 71 -25
25 -46 50 -46 55 0 5 -68 78 -151 161 -111 111 -153 148 -160 138 -4 -7 -11
-10 -16 -6 -4 5 -1 12 6 17 12 7 12 11 -2 24 -8 9 -21 16 -27 16 -6 0 -29 18
-50 40 -21 22 -43 40 -48 40 -5 0 -28 18 -51 40 -22 22 -46 40 -52 40 -6 0
-24 14 -39 30 -15 17 -34 30 -42 30 -7 0 -20 9 -28 20 -8 11 -21 20 -30 20 -9
0 -22 9 -30 20 -8 11 -22 20 -32 20 -10 0 -18 5 -18 10 0 6 -8 10 -18 10 -10
0 -24 9 -32 20 -8 11 -22 20 -32 20 -10 0 -18 5 -18 10 0 6 -9 10 -20 10 -11
0 -20 5 -20 10 0 6 -13 10 -30 10 -16 0 -30 5 -30 10 0 6 -9 10 -20 10 -11 0
-20 5 -20 10 0 6 -9 10 -20 10 -11 0 -20 5 -20 10 0 6 -9 10 -20 10 -11 0 -20
5 -20 10 0 6 -9 10 -20 10 -11 0 -20 5 -20 10 0 6 -13 10 -30 10 -16 0 -30 5
-30 10 0 6 -9 10 -20 10 -11 0 -20 5 -20 10 0 6 -11 10 -24 10 -14 0 -28 5
-31 10 -3 6 -15 10 -26 10 -10 0 -19 5 -19 10 0 6 -13 10 -30 10 -16 0 -30 5
-30 10 0 6 -13 10 -30 10 -16 0 -30 5 -30 10 0 6 -13 10 -30 10 -16 0 -30 5
-30 10 0 6 -18 10 -40 10 -22 0 -40 5 -40 10 0 6 -18 10 -40 10 -22 0 -40 5
-40 10 0 6 -18 10 -40 10 -22 0 -40 5 -40 10 0 6 -18 10 -40 10 -22 0 -40 5
-40 10 0 6 -18 10 -40 10 -22 0 -40 5 -40 10 0 6 -18 10 -40 10 -22 0 -40 5
-40 10 0 6 -27 10 -60 10 -33 0 -60 4 -60 10 0 6 -27 10 -60 10 -33 0 -60 4
-60 10 0 6 -27 10 -60 10 -33 0 -60 4 -60 10 0 6 -40 10 -100 10 -60 0 -100 4
-100 10 0 6 -30 10 -70 10 -40 0 -70 4 -70 10 0 6 -43 10 -110 10 -67 0 -110
4 -110 10 0 6 -50 10 -130 10 -80 0 -130 4 -130 10 0 6 -77 10 -210 10 -133 0
-210 4 -210 10 0 7 -527 10 -1560 10 l-1560 0 2 -727 3 -728 1595 -7 c1601 -7
1867 -11 1884 -29 6 -5 65 -9 133 -9 75 0 123 -4 123 -10 0 -6 40 -10 100 -10
60 0 100 -4 100 -10 0 -6 40 -10 100 -10 60 0 100 -4 100 -10 0 -6 27 -10 60
-10 33 0 60 -4 60 -10 0 -6 27 -10 60 -10 33 0 60 -4 60 -10 0 -5 24 -10 54
-10 30 0 58 -4 61 -10 3 -5 21 -10 40 -10 19 0 37 -4 40 -10 3 -5 24 -10 46
-10 21 0 39 -4 39 -10 0 -5 14 -10 30 -10 17 0 30 -4 30 -10 0 -5 14 -10 30
-10 17 0 30 -4 30 -10 0 -5 15 -10 34 -10 19 0 38 -4 41 -10 3 -5 15 -10 26
-10 10 0 19 -4 19 -10 0 -5 14 -10 30 -10 17 0 30 -4 30 -10 0 -5 14 -10 30
-10 17 0 30 -4 30 -10 0 -5 8 -10 18 -10 10 0 24 -9 32 -20 8 -11 22 -20 32
-20 10 0 18 -4 18 -10 0 -5 12 -10 26 -10 17 0 28 -6 31 -20 3 -11 13 -20 22
-20 9 0 23 -9 31 -20 8 -11 22 -20 32 -20 10 0 18 -4 18 -10 0 -5 5 -10 11
-10 6 0 25 -15 43 -32 77 -75 137 -128 147 -128 14 0 39 -25 39 -39 0 -6 32
-43 70 -82 39 -39 70 -76 70 -83 0 -6 9 -18 20 -26 11 -8 20 -21 20 -28 0 -8
13 -27 30 -42 16 -15 30 -33 30 -40 0 -7 13 -25 30 -40 16 -15 30 -34 30 -42
0 -7 9 -20 20 -28 11 -8 20 -22 20 -32 0 -10 5 -18 10 -18 6 0 10 -9 10 -20 0
-11 5 -20 10 -20 6 0 10 -8 10 -18 0 -10 9 -24 20 -32 11 -8 20 -22 20 -32 0
-10 5 -18 10 -18 6 0 10 -9 10 -20 0 -11 5 -20 10 -20 6 0 10 -9 10 -20 0 -11
5 -20 10 -20 6 0 10 -9 10 -20 0 -11 5 -20 10 -20 6 0 10 -9 10 -20 0 -11 5
-20 10 -20 6 0 10 -9 10 -20 0 -11 5 -20 10 -20 6 0 10 -13 10 -30 0 -16 5
-30 10 -30 6 0 10 -9 10 -20 0 -11 5 -20 10 -20 6 0 10 -9 10 -20 0 -11 9 -35
20 -55 11 -20 20 -47 20 -60 0 -14 5 -25 10 -25 6 0 10 -9 10 -20 0 -11 5 -20
10 -20 6 0 10 -15 10 -34 0 -19 5 -38 10 -41 6 -3 10 -19 10 -36 0 -16 5 -29
10 -29 6 0 10 -18 10 -40 0 -22 5 -40 10 -40 6 0 10 -18 10 -40 0 -22 5 -40
10 -40 6 0 10 -18 10 -40 0 -22 5 -40 10 -40 6 0 10 -22 10 -50 0 -27 5 -50
10 -50 6 0 10 -27 10 -60 0 -33 4 -60 9 -60 10 0 19 -78 27 -240 3 -58 9 -109
15 -114 12 -13 12 -886 0 -886 -5 0 -12 -42 -15 -92 -11 -186 -18 -248 -27
-248 -5 0 -9 -27 -9 -60 0 -33 -4 -60 -10 -60 -5 0 -10 -18 -10 -40 0 -22 -4
-40 -10 -40 -5 0 -10 -22 -10 -50 0 -27 -4 -50 -10 -50 -5 0 -10 -18 -10 -40
0 -22 -4 -40 -10 -40 -5 0 -10 -13 -10 -30 0 -16 -4 -30 -10 -30 -5 0 -10 -18
-10 -40 0 -22 -4 -40 -10 -40 -5 0 -10 -13 -10 -30 0 -16 -4 -30 -10 -30 -5 0
-10 -13 -10 -30 0 -16 -4 -30 -10 -30 -5 0 -10 -13 -10 -30 0 -16 -4 -30 -10
-30 -5 0 -10 -9 -10 -20 0 -11 -4 -20 -10 -20 -5 0 -10 -9 -10 -19 0 -11 -5
-23 -10 -26 -6 -3 -10 -17 -10 -31 0 -13 -4 -24 -10 -24 -5 0 -10 -9 -10 -20
0 -11 -4 -20 -10 -20 -5 0 -10 -9 -10 -20 0 -11 -4 -20 -10 -20 -5 0 -10 -9
-10 -20 0 -11 -4 -20 -10 -20 -5 0 -10 -7 -10 -15 0 -8 -4 -23 -9 -33 -5 -9
-19 -38 -31 -64 -13 -27 -27 -48 -32 -48 -4 0 -8 -9 -8 -20 0 -11 -4 -20 -10
-20 -5 0 -10 -9 -10 -20 0 -11 -4 -20 -8 -20 -5 0 -15 -12 -23 -27 -8 -16 -22
-35 -31 -44 -10 -9 -18 -23 -18 -30 0 -8 -9 -21 -20 -29 -11 -8 -20 -21 -20
-30 0 -9 -9 -22 -20 -30 -11 -8 -20 -21 -20 -28 0 -8 -14 -27 -30 -42 -17 -15
-30 -33 -30 -40 0 -6 -18 -29 -40 -50 -22 -21 -40 -43 -40 -48 0 -14 -166
-182 -180 -182 -6 0 -29 -18 -50 -40 -21 -22 -43 -40 -48 -40 -5 0 -23 -13
-40 -30 -18 -16 -38 -30 -45 -30 -7 0 -19 -9 -27 -20 -8 -11 -21 -20 -30 -20
-9 0 -22 -9 -30 -20 -8 -11 -21 -20 -30 -20 -9 0 -22 -9 -30 -20 -8 -11 -22
-20 -32 -20 -10 0 -18 -4 -18 -10 0 -5 -13 -10 -30 -10 -16 0 -30 -4 -30 -10
0 -5 -9 -10 -20 -10 -11 0 -20 -4 -20 -10 0 -5 -9 -10 -19 -10 -11 0 -23 -4
-26 -10 -3 -5 -22 -10 -41 -10 -19 0 -34 -4 -34 -10 0 -5 -18 -10 -40 -10 -22
0 -40 -4 -40 -10 0 -5 -18 -10 -40 -10 -22 0 -40 -4 -40 -10 0 -5 -18 -10 -40
-10 -22 0 -40 -4 -40 -10 0 -5 -18 -10 -40 -10 -22 0 -40 -4 -40 -10 0 -5 -22
-10 -50 -10 -27 0 -50 -4 -50 -10 0 -6 -27 -10 -60 -10 -33 0 -60 -4 -60 -10
0 -6 -27 -10 -60 -10 -33 0 -60 -4 -60 -10 0 -6 -30 -10 -70 -10 -40 0 -70 -4
-70 -10 0 -6 -33 -10 -80 -10 -47 0 -80 -4 -80 -10 0 -6 -37 -10 -90 -10 -53
0 -90 -4 -90 -10 0 -6 -50 -10 -130 -10 -80 0 -130 -4 -130 -10 0 -7 -466 -10
-1379 -10 -909 0 -1382 -3 -1386 -10 -8 -13 -142 -13 -150 0 -8 13 -162 13
-170 0 -8 -13 -302 -13 -310 0 -4 6 -103 10 -266 10 l-259 0 0 4374 c0 2406
-3 4381 -6 4390 -4 11 -1 16 10 16 9 0 16 5 16 10 0 7 557 9 1708 5 1864 -5
2341 -10 2356 -25 6 -6 58 -10 117 -10 61 0 111 -4 114 -10 3 -6 50 -10 106
-10 59 0 99 -4 99 -10 0 -6 38 -10 94 -10 53 0 98 -4 101 -10 3 -5 39 -10 80
-10 41 0 77 -4 80 -10 3 -5 42 -10 86 -10 46 0 79 -4 79 -10 0 -5 22 -10 49
-10 28 0 53 -4 56 -10 3 -5 33 -10 65 -10 32 0 62 -4 65 -10 3 -5 26 -10 50
-10 24 0 47 -4 50 -10 3 -5 24 -10 46 -10 21 0 39 -4 39 -10 0 -5 18 -10 40
-10 22 0 40 -4 40 -10 0 -5 23 -10 50 -10 28 0 50 -4 50 -10 0 -5 20 -10 44
-10 25 0 48 -4 51 -10 3 -5 24 -10 45 -10 21 0 42 -4 45 -10 3 -5 22 -10 41
-10 19 0 34 -4 34 -10 0 -5 15 -10 34 -10 19 0 38 -4 41 -10 3 -5 19 -10 36
-10 16 0 29 -4 29 -10 0 -5 14 -10 30 -10 17 0 30 -4 30 -10 0 -5 14 -10 30
-10 17 0 30 -4 30 -10 0 -5 9 -10 19 -10 11 0 23 -4 26 -10 3 -5 17 -10 31
-10 13 0 24 -4 24 -10 0 -5 11 -10 24 -10 14 0 28 -4 31 -10 3 -5 15 -10 26
-10 10 0 19 -4 19 -10 0 -5 14 -10 30 -10 17 0 30 -4 30 -10 0 -5 9 -10 20
-10 11 0 20 -4 20 -10 0 -5 9 -10 20 -10 11 0 20 -4 20 -10 0 -5 9 -10 20 -10
11 0 20 -4 20 -10 0 -5 14 -10 30 -10 17 0 30 -4 30 -10 0 -5 9 -10 20 -10 11
0 20 -4 20 -10 0 -5 9 -10 20 -10 11 0 20 -4 20 -10 0 -5 9 -10 20 -10 11 0
20 -4 20 -10 0 -5 9 -10 20 -10 11 0 20 -4 20 -10 0 -5 6 -10 13 -10 7 0 23
-9 35 -20 12 -11 28 -20 37 -20 8 0 15 -4 15 -10 0 -5 7 -10 15 -10 9 0 25 -9
37 -20 12 -11 28 -20 35 -20 7 0 13 -4 13 -10 0 -5 9 -10 20 -10 11 0 20 -4
20 -10 0 -5 7 -10 15 -10 9 0 27 -11 41 -25 14 -14 29 -25 34 -25 5 0 20 -11
34 -25 14 -14 31 -25 38 -25 8 0 20 -9 28 -20 8 -11 21 -20 28 -20 8 0 27 -13
42 -30 15 -16 33 -30 40 -30 6 0 33 -22 60 -50 27 -27 54 -50 60 -50 6 0 32
-22 58 -48 26 -26 55 -51 65 -55 9 -3 17 -13 17 -22 0 -8 7 -15 16 -15 9 0 43
-27 75 -60 32 -33 63 -60 69 -60 6 0 14 -8 17 -17 4 -10 38 -48 75 -85 37 -37
68 -72 68 -78 0 -6 30 -41 68 -78 37 -37 78 -83 92 -102 13 -19 37 -47 52 -62
15 -14 28 -31 28 -37 0 -7 16 -27 35 -47 19 -19 35 -39 35 -44 0 -5 11 -20 25
-34 14 -14 25 -29 25 -34 0 -6 13 -24 30 -42 16 -18 30 -37 30 -44 0 -6 9 -18
20 -26 11 -8 20 -21 20 -30 0 -9 9 -22 20 -30 11 -8 20 -21 20 -30 0 -9 9 -22
20 -30 11 -8 20 -21 20 -30 0 -9 9 -22 20 -30 11 -8 20 -22 20 -32 0 -10 5
-18 10 -18 6 0 10 -8 10 -18 0 -10 9 -24 20 -32 11 -8 20 -22 20 -32 0 -10 4
-18 9 -18 5 0 14 -13 21 -30 7 -16 16 -30 21 -30 5 0 9 -9 9 -20 0 -11 4 -20
8 -20 5 0 20 -21 33 -47 13 -27 27 -49 32 -51 4 -2 7 -12 7 -23 0 -10 5 -19
10 -19 6 0 10 -9 10 -20 0 -11 5 -20 10 -20 6 0 10 -9 10 -20 0 -11 5 -20 10
-20 6 0 10 -9 10 -20 0 -11 5 -20 10 -20 6 0 10 -9 10 -20 0 -11 5 -20 10 -20
6 0 10 -9 10 -20 0 -11 5 -20 10 -20 6 0 10 -9 10 -20 0 -11 5 -20 10 -20 6 0
10 -9 10 -19 0 -11 5 -23 10 -26 6 -3 10 -17 10 -31 0 -13 5 -24 10 -24 6 0
10 -9 10 -20 0 -11 5 -20 10 -20 6 0 10 -9 10 -20 0 -11 5 -20 10 -20 6 0 10
-9 10 -20 0 -11 5 -20 10 -20 6 0 10 -13 10 -30 0 -16 5 -30 10 -30 6 0 10 -9
10 -20 0 -11 5 -20 10 -20 6 0 10 -13 10 -30 0 -16 5 -30 10 -30 6 0 10 -13
10 -30 0 -16 5 -30 10 -30 6 0 10 -13 10 -30 0 -16 5 -30 10 -30 6 0 10 -13
10 -30 0 -21 5 -30 16 -30 11 0 14 -6 9 -20 -4 -11 -2 -20 4 -20 6 0 11 -13
11 -29 0 -17 4 -33 10 -36 5 -3 10 -19 10 -35 0 -16 4 -32 10 -35 6 -3 10 -19
10 -35 0 -16 5 -32 10 -35 6 -3 10 -22 10 -41 0 -19 5 -34 10 -34 6 0 10 -18
10 -40 0 -22 5 -40 10 -40 6 0 10 -13 10 -30 0 -16 5 -30 10 -30 6 0 10 -22
10 -50 0 -27 5 -50 10 -50 6 0 10 -22 10 -50 0 -27 5 -50 10 -50 6 0 10 -22
10 -50 0 -27 5 -50 10 -50 6 0 10 -18 10 -39 0 -22 5 -43 10 -46 6 -3 10 -35
10 -71 0 -36 4 -64 10 -64 6 0 10 -27 10 -60 0 -33 4 -60 10 -60 6 0 10 -33
10 -80 0 -47 4 -80 10 -80 6 0 10 -41 10 -104 0 -59 4 -108 10 -111 6 -3 10
-50 10 -105 0 -55 4 -102 10 -105 13 -8 14 -977 1 -991 -6 -5 -12 -58 -15
-119 -13 -248 -18 -310 -27 -319 -5 -6 -9 -41 -9 -78 0 -39 -4 -68 -10 -68 -6
0 -10 -26 -10 -59 0 -33 -5 -63 -10 -66 -5 -3 -10 -35 -10 -71 0 -36 -4 -64
-10 -64 -5 0 -10 -22 -10 -50 0 -27 -4 -50 -10 -50 -5 0 -10 -20 -10 -44 0
-25 -4 -48 -10 -51 -5 -3 -10 -24 -10 -45 0 -21 -4 -42 -10 -45 -5 -3 -10 -24
-10 -45 0 -21 -5 -42 -10 -45 -5 -3 -10 -19 -10 -36 0 -16 -4 -29 -10 -29 -5
0 -10 -18 -10 -40 0 -22 -4 -40 -10 -40 -5 0 -10 -13 -10 -29 0 -17 -4 -33
-10 -36 -5 -3 -10 -22 -10 -41 0 -19 -4 -34 -10 -34 -5 0 -10 -13 -10 -30 0
-16 -4 -30 -10 -30 -5 0 -10 -9 -10 -20 0 -28 -23 -100 -32 -100 -5 0 -8 -13
-8 -30 0 -16 -4 -30 -10 -30 -5 0 -10 -13 -10 -30 0 -16 -4 -30 -10 -30 -5 0
-10 -13 -10 -30 0 -16 -4 -30 -10 -30 -5 0 -10 -9 -10 -20 0 -11 -4 -20 -10
-20 -5 0 -10 -13 -10 -30 0 -16 -4 -30 -10 -30 -5 0 -10 -13 -10 -30 0 -16 -3
-30 -7 -30 -9 0 -33 -49 -33 -67 0 -7 -4 -13 -10 -13 -5 0 -10 -9 -10 -20 0
-11 -4 -20 -10 -20 -5 0 -10 -11 -10 -24 0 -14 -4 -28 -10 -31 -5 -3 -10 -15
-10 -26 0 -10 -4 -19 -10 -19 -5 0 -10 -9 -10 -20 0 -11 -4 -20 -10 -20 -5 0
-10 -10 -10 -23 0 -13 -9 -33 -20 -45 -11 -12 -20 -28 -20 -37 0 -8 -4 -15
-10 -15 -5 0 -10 -9 -10 -20 0 -11 -4 -20 -10 -20 -5 0 -10 -6 -10 -13 0 -18
-24 -67 -32 -67 -5 0 -8 -9 -8 -20 0 -11 -4 -20 -10 -20 -5 0 -10 -9 -10 -20
0 -11 -4 -20 -10 -20 -5 0 -10 -8 -10 -18 0 -10 -9 -24 -20 -32 -11 -8 -20
-22 -20 -32 0 -10 -4 -18 -10 -18 -5 0 -10 -8 -10 -18 0 -10 -9 -24 -20 -32
-11 -8 -20 -22 -20 -32 0 -10 -4 -18 -10 -18 -5 0 -10 -8 -10 -18 0 -10 -9
-24 -20 -32 -11 -8 -20 -22 -20 -32 0 -10 -3 -18 -8 -18 -4 0 -15 -17 -24 -38
-8 -20 -32 -55 -52 -77 -20 -21 -36 -44 -36 -50 0 -6 -9 -17 -20 -25 -11 -8
-20 -21 -20 -30 0 -9 -9 -22 -20 -30 -11 -8 -20 -21 -20 -30 0 -9 -9 -22 -20
-30 -11 -8 -20 -21 -20 -28 0 -7 -18 -31 -40 -52 -22 -21 -40 -44 -40 -50 0
-6 -18 -29 -40 -50 -22 -21 -40 -44 -40 -50 0 -6 -32 -42 -70 -80 -39 -38 -70
-74 -70 -79 0 -6 -14 -20 -30 -33 -16 -12 -30 -25 -30 -30 0 -12 -168 -178
-180 -178 -13 0 -51 -37 -75 -73 -9 -15 -22 -27 -27 -27 -6 0 -23 -13 -38 -30
-15 -16 -33 -30 -40 -30 -6 0 -33 -22 -60 -50 -27 -27 -53 -50 -58 -50 -5 0
-28 -18 -51 -40 -22 -22 -46 -40 -52 -40 -6 0 -24 -13 -39 -30 -15 -16 -33
-30 -40 -30 -7 0 -25 -13 -40 -30 -15 -16 -35 -30 -44 -30 -9 0 -16 -4 -16
-10 0 -5 -8 -10 -18 -10 -10 0 -24 -9 -32 -20 -8 -11 -21 -20 -29 -20 -7 0
-21 -8 -30 -17 -21 -23 -57 -43 -76 -43 -8 0 -15 -4 -15 -10 0 -5 -7 -10 -15
-10 -9 0 -25 -9 -37 -20 -12 -11 -28 -20 -35 -20 -7 0 -13 -4 -13 -10 0 -5 -9
-10 -20 -10 -11 0 -20 -4 -20 -10 0 -5 -9 -10 -20 -10 -11 0 -20 -4 -20 -10 0
-5 -7 -10 -15 -10 -9 0 -25 -9 -37 -20 -12 -11 -32 -20 -45 -20 -13 0 -23 -4
-23 -10 0 -5 -9 -10 -20 -10 -11 0 -20 -4 -20 -10 0 -5 -9 -10 -20 -10 -11 0
-20 -4 -20 -10 0 -5 -9 -10 -20 -10 -11 0 -20 -4 -20 -10 0 -5 -13 -10 -30
-10 -16 0 -30 -4 -30 -10 0 -5 -9 -10 -20 -10 -11 0 -20 -4 -20 -10 0 -5 -13
-10 -30 -10 -16 0 -30 -4 -30 -10 0 -5 -11 -10 -24 -10 -14 0 -28 -4 -31 -10
-3 -5 -17 -10 -30 -10 -13 0 -27 -4 -30 -10 -3 -5 -19 -10 -36 -10 -16 0 -29
-4 -29 -10 0 -5 -13 -10 -30 -10 -16 0 -30 -4 -30 -10 0 -5 -13 -10 -30 -10
-16 0 -30 -4 -30 -10 0 -5 -18 -10 -40 -10 -22 0 -40 -4 -40 -10 0 -5 -13 -10
-30 -10 -16 0 -30 -4 -30 -10 0 -5 -22 -10 -50 -10 -27 0 -50 -4 -50 -10 0 -5
-18 -10 -40 -10 -22 0 -40 -4 -40 -10 0 -5 -18 -10 -40 -10 -22 0 -40 -4 -40
-10 0 -5 -20 -10 -44 -10 -25 0 -48 -4 -51 -10 -3 -5 -28 -10 -56 -10 -27 0
-49 -4 -49 -10 0 -6 -27 -10 -60 -10 -33 0 -60 -4 -60 -10 0 -5 -22 -10 -50
-10 -27 0 -50 -4 -50 -10 0 -6 -27 -10 -60 -10 -33 0 -60 -4 -60 -10 0 -6 -27
-10 -60 -10 -33 0 -60 -4 -60 -10 0 -6 -30 -10 -70 -10 -40 0 -70 -4 -70 -10
0 -6 -33 -10 -80 -10 -47 0 -80 -4 -80 -10 0 -6 -33 -10 -80 -10 -47 0 -80 -4
-80 -10 0 -6 -50 -10 -130 -10 -80 0 -130 -4 -130 -10 0 -6 -76 -10 -209 -10
-130 0 -211 -4 -213 -10 -5 -15 -8738 -19 -8738 -3 0 6 -6 14 -12 17 -10 5
-10 7 0 12 14 7 16 80 2 89 -7 4 -10 2285 -10 6811 l0 6804 7863 5 c4324 2
8076 5 8337 6 261 1 489 0 505 -3 17 -3 33 -1 37 5 4 7 12 5 22 -6 15 -14 16
-724 16 -8121 l0 -8106 -7150 0 -7150 0 0 250 0 250 -730 0 -730 0 0 -980 0
-980 8610 0 8610 0 0 9570 0 9570 -9850 0 -9850 0 0 -8330z m16360 2440 c0 -5
-4 -10 -10 -10 -5 0 -10 5 -10 10 0 6 5 10 10 10 6 0 10 -4 10 -10z m-2400
-6540 c0 -5 -4 -10 -10 -10 -5 0 -10 5 -10 10 0 6 5 10 10 10 6 0 10 -4 10
-10z m700 -2880 c0 -5 -4 -10 -10 -10 -5 0 -10 5 -10 10 0 6 5 10 10 10 6 0
10 -4 10 -10z"/>
<path d="M3240 17120 l0 -4880 730 0 730 0 0 4150 0 4150 223 2 c122 0 234 0
250 -1 l27 -2 0 730 0 731 -980 0 -980 0 0 -4880z"/>
<path d="M11500 6310 c0 -5 -22 -10 -50 -10 -27 0 -50 -4 -50 -10 0 -5 -18
-10 -40 -10 -22 0 -40 -4 -40 -10 0 -5 -22 -10 -50 -10 -27 0 -50 -4 -50 -10
0 -5 -9 -10 -20 -10 -11 0 -20 -4 -20 -10 0 -5 -9 -10 -20 -10 -11 0 -20 -4
-20 -10 0 -5 -9 -10 -20 -10 -11 0 -20 -4 -20 -10 0 -5 -13 -10 -30 -10 -16 0
-30 -4 -30 -10 0 -5 -9 -10 -20 -10 -11 0 -20 -4 -20 -10 0 -5 -9 -10 -20 -10
-11 0 -20 -4 -20 -10 0 -5 -6 -10 -13 -10 -7 0 -23 -9 -35 -20 -12 -11 -28
-20 -37 -20 -8 0 -15 -4 -15 -10 0 -5 -7 -10 -16 -10 -9 0 -29 -13 -44 -30
-15 -16 -33 -30 -39 -30 -6 0 -31 -20 -55 -44 -24 -24 -61 -56 -82 -72 -47
-35 -114 -102 -114 -115 0 -4 -20 -29 -45 -53 -25 -25 -45 -51 -45 -59 0 -7
-9 -19 -20 -27 -11 -8 -20 -21 -20 -30 0 -9 -9 -22 -20 -30 -11 -8 -20 -22
-20 -32 0 -10 -4 -18 -9 -18 -5 0 -14 -13 -21 -30 -7 -16 -16 -30 -21 -30 -5
0 -9 -9 -9 -20 0 -11 -4 -20 -10 -20 -5 0 -10 -9 -10 -20 0 -11 -4 -20 -10
-20 -5 0 -10 -9 -10 -20 0 -11 -4 -20 -10 -20 -5 0 -10 -9 -10 -20 0 -11 -4
-20 -10 -20 -5 0 -10 -13 -10 -30 0 -16 -4 -30 -10 -30 -5 0 -10 -13 -10 -30
0 -16 -4 -30 -10 -30 -5 0 -10 -18 -10 -40 0 -22 -4 -40 -10 -40 -5 0 -10 -18
-10 -40 0 -22 -4 -40 -10 -40 -5 0 -10 -22 -10 -48 0 -26 -4 -52 -9 -57 -15
-15 -21 -458 -26 -1807 -3 -823 -2 -1249 5 -1253 6 -3 10 -33 10 -65 0 -32 5
-62 10 -65 6 -3 10 -28 10 -56 0 -27 5 -49 10 -49 6 0 10 -18 10 -40 0 -22 5
-40 10 -40 6 0 10 -9 10 -19 0 -11 5 -23 10 -26 6 -3 10 -22 10 -41 0 -19 5
-34 10 -34 6 0 10 -9 10 -20 0 -11 5 -20 10 -20 6 0 10 -9 10 -20 0 -11 5 -20
10 -20 6 0 10 -11 10 -25 0 -14 9 -35 20 -47 11 -12 20 -28 20 -35 0 -7 5 -13
10 -13 6 0 10 -9 10 -20 0 -11 5 -20 10 -20 6 0 10 -8 10 -18 0 -10 9 -24 20
-32 11 -8 20 -22 20 -32 0 -10 5 -18 10 -18 6 0 10 -6 10 -14 0 -8 18 -32 40
-54 22 -21 40 -44 40 -51 0 -14 232 -247 280 -281 19 -13 42 -32 51 -42 9 -10
24 -18 33 -18 9 0 16 -4 16 -10 0 -5 8 -10 18 -10 10 0 24 -9 32 -20 8 -11 22
-20 32 -20 10 0 18 -4 18 -10 0 -5 8 -10 18 -10 10 0 24 -9 32 -20 8 -11 24
-20 37 -20 12 0 25 -4 28 -10 3 -5 15 -10 26 -10 10 0 19 -4 19 -10 0 -5 9
-10 20 -10 11 0 20 -4 20 -10 0 -5 14 -10 30 -10 17 0 30 -4 30 -10 0 -5 14
-10 30 -10 17 0 30 -4 30 -10 0 -5 14 -10 30 -10 17 0 30 -4 30 -10 0 -5 23
-10 50 -10 28 0 50 -4 50 -10 0 -6 34 -10 83 -10 46 0 88 -5 94 -11 15 -15
443 5 443 22 0 5 18 9 40 9 22 0 40 5 40 10 0 6 18 10 40 10 22 0 40 5 40 10
0 6 14 10 30 10 17 0 30 5 30 10 0 6 14 10 30 10 17 0 30 5 30 10 0 6 9 10 20
10 11 0 20 5 20 10 0 6 9 10 20 10 11 0 20 5 20 10 0 6 9 10 20 10 11 0 20 5
20 10 0 6 9 10 20 10 11 0 20 5 20 10 0 6 9 10 20 10 11 0 20 5 20 10 0 6 9
10 20 10 11 0 20 5 20 10 0 6 8 10 18 10 10 0 24 9 32 20 8 11 20 20 28 20 7
0 25 12 39 26 20 21 23 28 12 34 -7 5 -10 13 -5 17 5 4 11 2 13 -4 3 -7 11
-13 18 -13 15 0 285 264 285 278 0 5 14 23 30 40 17 18 30 38 30 45 0 7 9 19
20 27 11 8 20 21 20 30 0 9 9 22 20 30 11 8 20 22 20 32 0 10 5 18 10 18 6 0
10 9 10 20 0 11 5 20 10 20 6 0 10 9 10 20 0 11 5 20 10 20 6 0 10 9 10 20 0
11 5 20 10 20 6 0 10 9 10 20 0 11 5 20 10 20 6 0 10 11 10 24 0 14 5 28 10
31 6 3 10 15 10 26 0 10 5 19 10 19 6 0 10 14 10 30 0 17 5 30 10 30 6 0 10
13 10 29 0 17 5 33 10 36 6 3 10 22 10 41 0 19 5 34 10 34 6 0 10 30 10 70 0
40 4 70 10 70 7 0 10 516 10 1529 0 1009 -3 1532 -10 1536 -5 3 -10 40 -10 81
0 43 -4 74 -10 74 -5 0 -10 18 -10 40 0 22 -4 40 -10 40 -5 0 -10 18 -10 40 0
22 -4 40 -10 40 -5 0 -10 14 -10 30 0 17 -4 30 -10 30 -5 0 -10 9 -10 19 0 11
-4 23 -10 26 -5 3 -10 17 -10 31 0 13 -4 24 -10 24 -5 0 -10 9 -10 20 0 11 -4
20 -10 20 -5 0 -10 14 -10 30 0 17 -4 30 -10 30 -5 0 -10 6 -10 13 0 7 -9 23
-20 35 -11 12 -20 27 -20 34 0 8 -9 20 -20 28 -11 8 -20 21 -20 30 0 9 -9 22
-20 30 -11 8 -20 21 -20 30 0 9 -9 22 -20 30 -11 8 -20 20 -20 28 0 7 -22 35
-50 62 -27 27 -50 54 -50 60 0 14 -66 80 -80 80 -5 0 -37 27 -71 60 -33 33
-66 60 -73 60 -6 0 -18 9 -26 20 -8 11 -21 20 -30 20 -9 0 -22 9 -30 20 -8 11
-21 20 -30 20 -9 0 -22 9 -30 20 -8 11 -22 20 -32 20 -10 0 -18 5 -18 10 0 6
-9 10 -20 10 -11 0 -20 5 -20 10 0 6 -9 10 -20 10 -11 0 -20 5 -20 10 0 6 -9
10 -20 10 -11 0 -20 5 -20 10 0 6 -9 10 -19 10 -11 0 -23 5 -26 10 -3 6 -17
10 -31 10 -13 0 -24 5 -24 10 0 6 -13 10 -30 10 -16 0 -30 5 -30 10 0 6 -15
10 -34 10 -19 0 -38 5 -41 10 -3 6 -21 10 -40 10 -19 0 -37 5 -40 10 -3 6 -28
10 -56 10 -27 0 -49 5 -49 10 0 6 -83 10 -230 10 -147 0 -230 -4 -230 -10z
m1400 -500 c0 -5 -4 -10 -10 -10 -5 0 -10 5 -10 10 0 6 5 10 10 10 6 0 10 -4
10 -10z m-1075 -480 c3 -5 26 -10 51 -10 24 0 44 -4 44 -10 0 -5 14 -10 30
-10 17 0 30 -4 30 -10 0 -5 9 -10 20 -10 11 0 20 -4 20 -8 0 -5 12 -15 28 -23
36 -19 192 -177 192 -195 0 -8 5 -14 10 -14 6 0 10 -9 10 -20 0 -11 5 -20 10
-20 6 0 10 -9 10 -20 0 -11 5 -20 10 -20 6 0 10 -9 10 -20 0 -11 5 -20 10 -20
6 0 10 -13 10 -30 0 -16 5 -30 10 -30 6 0 10 -26 10 -58 0 -32 5 -63 10 -68
12 -12 7 -2814 -5 -2882 -4 -23 -11 -45 -16 -48 -5 -3 -9 -14 -9 -25 0 -10 -4
-19 -10 -19 -5 0 -10 -9 -10 -20 0 -11 -4 -20 -10 -20 -5 0 -10 -9 -10 -20 0
-11 -4 -20 -10 -20 -5 0 -10 -8 -10 -18 0 -10 -9 -24 -20 -32 -11 -8 -20 -21
-20 -28 0 -16 -127 -142 -144 -142 -6 0 -18 -9 -26 -20 -8 -11 -22 -20 -32
-20 -10 0 -18 -4 -18 -10 0 -5 -9 -10 -20 -10 -11 0 -20 -4 -20 -10 0 -5 -9
-10 -20 -10 -11 0 -20 -4 -20 -10 0 -5 -18 -10 -40 -10 -22 0 -40 -4 -40 -10
0 -6 -43 -10 -110 -10 -67 0 -110 4 -110 10 0 6 -18 10 -40 10 -22 0 -40 5
-40 10 0 6 -13 10 -30 10 -16 0 -30 5 -30 10 0 6 -8 10 -18 10 -10 0 -24 9
-32 20 -8 11 -20 20 -27 20 -17 0 -183 166 -183 183 0 7 -9 19 -20 27 -11 8
-20 22 -20 32 0 10 -4 18 -10 18 -5 0 -10 9 -10 19 0 11 -4 23 -10 26 -5 3
-10 17 -10 30 0 13 -4 27 -10 30 -5 3 -10 26 -10 51 0 24 -4 44 -10 44 -7 0
-10 490 -10 1450 0 960 3 1450 10 1450 6 0 10 18 10 40 0 22 5 40 10 40 6 0
10 14 10 30 0 17 5 30 10 30 6 0 10 9 10 20 0 11 5 20 10 20 6 0 10 9 10 20 0
11 5 20 10 20 6 0 10 7 10 16 0 8 18 33 40 54 22 21 40 43 40 50 0 6 8 14 18
17 9 4 34 24 54 45 20 21 43 38 50 38 7 0 20 9 28 20 8 11 24 20 37 20 12 0
25 5 28 10 3 6 15 10 26 10 10 0 19 5 19 10 0 6 22 10 49 10 28 0 53 5 56 10
3 6 44 10 90 10 46 0 87 -4 90 -10z m1055 -4380 c0 -5 -4 -10 -10 -10 -5 0
-10 5 -10 10 0 6 5 10 10 10 6 0 10 -4 10 -10z"/>
<path d="M1235 5273 c-3 -533 -7 -1838 -10 -2901 l-6 -1932 891 0 c587 0 890
3 890 10 0 6 23 10 50 10 28 0 50 5 50 10 0 6 18 10 39 10 22 0 43 5 46 10 3
6 21 10 40 10 19 0 37 5 40 10 3 6 17 10 30 10 13 0 27 4 30 10 3 5 22 10 41
10 19 0 34 5 34 10 0 6 9 10 20 10 11 0 20 5 20 10 0 6 9 10 20 10 11 0 20 5
20 10 0 6 9 10 20 10 11 0 20 5 20 10 0 6 9 10 20 10 11 0 20 5 20 10 0 6 9
10 20 10 11 0 20 5 20 10 0 6 8 10 18 10 10 0 24 9 32 20 8 11 22 20 32 20 10
0 18 5 18 10 0 6 7 10 15 10 8 0 29 14 47 30 17 17 36 30 42 30 6 0 18 9 26
20 8 11 20 20 26 20 15 0 244 226 244 241 0 6 18 28 40 49 22 21 40 45 40 52
0 7 9 20 20 28 11 8 20 21 20 30 0 9 9 22 20 30 11 8 20 22 20 32 0 10 5 18
10 18 6 0 10 9 10 20 0 11 5 20 10 20 6 0 10 9 10 20 0 11 5 20 10 20 6 0 10
9 10 20 0 11 5 20 10 20 6 0 10 9 10 20 0 11 5 20 10 20 6 0 10 9 10 20 0 11
5 20 10 20 6 0 10 9 10 20 0 11 5 20 10 20 6 0 10 14 10 30 0 17 5 30 10 30 6
0 10 14 10 30 0 17 5 30 10 30 6 0 10 18 10 40 0 22 5 40 10 40 6 0 10 20 10
44 0 25 5 48 10 51 6 3 10 28 10 56 0 27 5 49 10 49 7 0 10 487 10 1440 0 953
-3 1440 -10 1440 -5 0 -10 23 -10 50 0 28 -4 50 -10 50 -5 0 -10 23 -10 50 0
28 -4 50 -10 50 -5 0 -10 14 -10 30 0 17 -4 30 -10 30 -5 0 -10 14 -10 30 0
17 -4 30 -10 30 -5 0 -10 14 -10 30 0 17 -4 30 -10 30 -5 0 -10 9 -10 20 0 11
-4 20 -10 20 -5 0 -10 14 -10 30 0 17 -4 30 -10 30 -5 0 -10 8 -10 18 0 10 -9
24 -20 32 -11 8 -20 22 -20 32 0 10 -4 18 -10 18 -5 0 -10 9 -10 20 0 11 -4
20 -10 20 -5 0 -10 7 -10 16 0 9 -14 29 -30 44 -16 15 -30 33 -30 39 0 6 -13
25 -30 43 -16 17 -30 35 -30 39 0 4 -26 34 -58 66 -32 32 -61 66 -65 76 -3 9
-11 17 -17 17 -6 0 -38 27 -70 60 -32 33 -64 60 -70 60 -5 0 -24 14 -42 30
-17 17 -37 30 -44 30 -8 0 -14 5 -14 10 0 6 -8 10 -18 10 -10 0 -24 9 -32 20
-8 11 -22 20 -32 20 -10 0 -18 5 -18 10 0 6 -8 10 -18 10 -10 0 -24 9 -32 20
-8 12 -26 20 -42 20 -15 0 -28 5 -28 10 0 6 -9 10 -20 10 -11 0 -20 5 -20 10
0 6 -9 10 -20 10 -11 0 -20 5 -20 10 0 6 -13 10 -30 10 -16 0 -30 5 -30 10 0
6 -13 10 -30 10 -16 0 -30 5 -30 10 0 6 -18 10 -40 10 -22 0 -40 5 -40 10 0 6
-18 10 -40 10 -22 0 -40 5 -40 10 0 6 -30 10 -70 10 -40 0 -70 4 -70 10 0 7
-307 10 -900 10 l-899 0 -6 -967z m1805 -43 c0 -5 9 -10 20 -10 11 0 20 -4 20
-10 0 -5 9 -10 20 -10 11 0 20 -4 20 -10 0 -5 9 -10 20 -10 11 0 20 -4 20 -10
0 -5 7 -10 15 -10 20 0 225 -205 225 -225 0 -8 5 -15 10 -15 6 0 10 -9 10 -20
0 -11 5 -20 10 -20 6 0 10 -9 10 -20 0 -11 5 -20 10 -20 6 0 10 -9 10 -19 0
-11 5 -23 10 -26 6 -3 10 -30 10 -60 0 -30 5 -57 10 -60 7 -4 10 -448 10
-1301 0 -856 -3 -1294 -10 -1294 -5 0 -10 -18 -10 -39 0 -22 -4 -43 -10 -46
-5 -3 -10 -17 -10 -31 0 -13 -4 -24 -10 -24 -5 0 -10 -11 -10 -25 0 -28 -20
-75 -32 -75 -4 0 -8 -8 -8 -18 0 -10 -9 -24 -20 -32 -11 -8 -20 -20 -20 -27 0
-7 -13 -27 -30 -45 -16 -17 -30 -35 -30 -40 0 -13 -47 -58 -61 -58 -6 0 -24
-13 -39 -30 -15 -16 -34 -30 -42 -30 -7 0 -20 -9 -28 -20 -8 -11 -22 -20 -32
-20 -10 0 -18 -4 -18 -10 0 -5 -9 -10 -20 -10 -11 0 -20 -4 -20 -10 0 -5 -13
-10 -30 -10 -16 0 -30 -4 -30 -10 0 -5 -18 -10 -39 -10 -22 0 -43 -4 -46 -10
-4 -6 -127 -10 -337 -10 -297 0 -330 2 -324 16 3 9 6 864 6 1900 l0 1884 400
0 c260 0 400 -3 400 -10z"/>
<path d="M16815 5513 c-3 -401 -7 -1707 -10 -2903 l-5 -2175 877 3 c558 1 881
6 887 12 6 6 34 10 63 10 29 0 53 4 53 9 0 5 19 11 43 15 84 10 117 18 117 27
0 5 14 9 30 9 17 0 30 5 30 10 0 6 14 10 30 10 17 0 30 5 30 10 0 6 9 10 20
10 11 0 20 5 20 10 0 6 14 10 30 10 17 0 30 5 30 10 0 6 9 10 20 10 11 0 20 5
20 10 0 6 9 10 20 10 11 0 20 5 20 10 0 6 9 10 20 10 11 0 20 5 20 10 0 6 8
10 18 10 10 0 24 9 32 20 8 11 21 20 30 20 9 0 22 9 30 20 8 11 21 20 28 20 8
0 27 14 42 30 15 17 33 30 40 30 6 0 29 18 50 40 21 22 46 40 54 40 9 0 16 8
16 20 0 11 7 20 15 20 15 0 105 84 105 99 0 5 23 32 50 61 51 53 60 75 38 83
-7 2 -9 8 -5 13 4 5 12 2 17 -5 7 -12 11 -12 24 2 9 8 16 22 16 29 0 8 9 20
20 28 11 8 20 22 20 32 0 10 5 18 10 18 6 0 10 9 10 20 0 11 5 20 10 20 6 0
10 9 10 20 0 11 3 20 8 20 8 0 32 48 32 65 0 6 9 17 20 25 12 8 20 26 20 42 0
15 5 28 10 28 6 0 10 9 10 20 0 11 5 20 10 20 6 0 10 14 10 30 0 17 5 30 10
30 6 0 10 15 10 34 0 19 5 38 10 41 6 3 10 19 10 35 0 16 5 32 10 35 6 3 10
28 10 55 0 27 5 52 10 55 6 3 10 37 10 75 0 38 5 72 10 75 7 4 10 465 10 1350
0 885 -3 1346 -10 1350 -5 3 -10 44 -10 91 0 49 -4 84 -10 84 -5 0 -10 23 -10
50 0 28 -4 50 -10 50 -5 0 -10 18 -10 40 0 22 -4 40 -10 40 -5 0 -10 9 -10 19
0 11 -4 23 -10 26 -5 3 -10 17 -10 31 0 13 -4 24 -10 24 -5 0 -10 9 -10 20 0
11 -4 20 -10 20 -5 0 -10 11 -10 24 0 14 -4 28 -10 31 -5 3 -10 15 -10 26 0
10 -4 19 -10 19 -5 0 -10 8 -10 18 0 10 -9 24 -20 32 -11 8 -20 22 -20 32 0
10 -4 18 -10 18 -5 0 -10 9 -10 20 0 11 -4 20 -10 20 -5 0 -10 6 -10 14 0 7
-13 27 -30 44 -16 18 -30 37 -30 43 0 6 -18 28 -40 49 -22 21 -40 43 -40 50 0
14 -66 80 -80 80 -6 0 -14 8 -17 17 -9 23 -89 103 -104 103 -6 0 -24 14 -39
30 -18 19 -34 28 -44 24 -9 -3 -16 -1 -16 5 0 17 -47 61 -65 61 -8 0 -15 5
-15 10 0 6 -8 10 -18 10 -10 0 -24 9 -32 20 -8 11 -22 20 -32 20 -10 0 -18 5
-18 10 0 6 -9 10 -20 10 -11 0 -20 5 -20 10 0 6 -9 10 -20 10 -11 0 -20 5 -20
10 0 6 -9 10 -20 10 -11 0 -20 5 -20 10 0 6 -13 10 -30 10 -16 0 -30 5 -30 10
0 6 -9 10 -20 10 -11 0 -20 5 -20 10 0 6 -13 10 -30 10 -16 0 -30 5 -30 10 0
6 -18 10 -40 10 -22 0 -40 5 -40 10 0 6 -22 10 -50 10 -27 0 -50 5 -50 10 0 6
-27 10 -60 10 -33 0 -60 4 -60 10 0 7 -307 10 -900 10 l-900 0 -5 -727z m1785
-283 c0 -5 14 -10 30 -10 17 0 30 -4 30 -10 0 -5 8 -10 18 -10 10 0 24 -9 32
-20 8 -11 25 -20 38 -20 15 0 26 -7 29 -20 3 -11 12 -20 19 -20 18 0 144 -125
144 -143 0 -7 9 -19 20 -27 11 -8 20 -22 20 -32 0 -10 5 -18 10 -18 6 0 10 -9
10 -20 0 -11 5 -20 10 -20 6 0 10 -9 10 -20 0 -11 5 -20 10 -20 6 0 10 -13 10
-29 0 -16 5 -31 12 -33 18 -6 18 -2732 1 -2749 -7 -7 -13 -26 -13 -41 0 -15
-4 -28 -10 -28 -5 0 -10 -9 -10 -20 0 -11 -4 -20 -10 -20 -5 0 -10 -9 -10 -19
0 -23 -40 -101 -52 -101 -4 0 -8 -7 -8 -15 0 -19 -164 -185 -183 -185 -7 0
-19 -9 -27 -20 -8 -11 -21 -20 -30 -20 -9 0 -22 -9 -30 -20 -8 -11 -22 -20
-32 -20 -9 0 -20 -4 -23 -10 -3 -5 -17 -10 -31 -10 -13 0 -24 -4 -24 -10 0 -5
-18 -10 -40 -10 -22 0 -40 -4 -40 -10 0 -6 -120 -10 -340 -10 l-340 0 5 608
c13 1556 15 3146 4 3153 -9 5 -8 11 2 23 12 13 63 15 402 16 251 0 387 -3 387
-10z m820 -4360 c0 -5 -4 -10 -10 -10 -5 0 -10 5 -10 10 0 6 5 10 10 10 6 0
10 -4 10 -10z"/>
<path d="M5700 3357 c0 -2119 -3 -2866 -11 -2874 -7 -7 -9 -19 -6 -27 6 -14
57 -16 451 -16 346 0 445 -3 449 -12 4 -10 7 -10 18 0 7 6 32 12 56 12 l43 0
0 1236 c0 1116 2 1237 16 1251 12 13 17 14 24 3 6 -9 16 -10 41 -2 46 14 455
16 464 2 3 -5 41 -10 85 -10 43 0 82 -4 85 -10 3 -5 21 -10 40 -10 19 0 37 -4
40 -10 3 -5 15 -10 26 -10 10 0 19 -4 19 -9 0 -5 13 -11 29 -14 16 -3 36 -13
44 -22 9 -8 21 -15 27 -15 7 0 25 -13 40 -30 15 -16 33 -30 40 -30 14 0 80
-69 80 -83 0 -5 12 -21 28 -35 15 -15 33 -39 41 -54 8 -16 18 -28 23 -28 4 0
8 -8 8 -18 0 -10 9 -24 20 -32 11 -8 20 -24 20 -37 0 -12 5 -25 10 -28 6 -3
10 -17 10 -30 0 -13 5 -27 10 -30 6 -3 10 -24 10 -45 0 -21 5 -42 10 -45 7 -4
10 -325 10 -931 l0 -924 510 0 511 0 -5 173 c-3 94 -8 540 -11 990 -4 497 -10
817 -16 817 -5 0 -9 27 -9 60 0 33 -4 60 -10 60 -5 0 -10 23 -10 50 0 28 -4
50 -10 50 -5 0 -10 14 -10 30 0 17 -4 30 -10 30 -5 0 -10 14 -10 30 0 17 -4
30 -10 30 -5 0 -10 14 -10 30 0 17 -4 30 -10 30 -5 0 -10 9 -10 20 0 11 -4 20
-10 20 -5 0 -10 14 -10 30 0 17 -4 30 -10 30 -5 0 -10 7 -10 15 0 9 -9 25 -20
37 -11 12 -20 28 -20 35 0 7 -4 13 -10 13 -5 0 -10 9 -10 20 0 11 -4 20 -10
20 -5 0 -10 8 -10 18 0 10 -9 24 -20 32 -11 8 -20 21 -20 30 0 9 -9 22 -20 30
-11 8 -20 20 -20 28 0 16 -24 42 -39 42 -6 0 -19 18 -28 40 -11 25 -24 40 -35
40 -13 0 -18 8 -18 25 0 19 24 49 90 115 50 49 90 93 90 98 0 5 14 23 30 40
17 18 30 38 30 45 0 7 9 19 20 27 11 8 20 22 20 32 0 10 5 18 10 18 6 0 10 6
10 13 0 7 9 23 20 35 11 12 20 28 20 37 0 8 5 15 10 15 6 0 10 9 10 20 0 11 5
20 10 20 6 0 10 9 10 20 0 11 5 20 10 20 6 0 10 14 10 30 0 17 5 30 10 30 6 0
10 9 10 20 0 11 5 20 10 20 6 0 10 10 10 22 0 23 16 81 31 110 5 10 9 34 9 53
0 19 5 35 10 35 6 0 10 23 10 50 0 28 5 50 10 50 6 0 10 93 10 260 0 167 -4
260 -10 260 -5 0 -10 22 -10 49 0 28 -4 53 -10 56 -5 3 -10 26 -10 51 0 24 -4
44 -10 44 -5 0 -10 14 -10 30 0 17 -4 30 -10 30 -5 0 -10 14 -10 30 0 17 -4
30 -10 30 -5 0 -10 14 -10 30 0 17 -4 30 -10 30 -5 0 -10 9 -10 20 0 11 -4 20
-10 20 -5 0 -10 9 -10 20 0 11 -4 20 -10 20 -5 0 -10 9 -10 20 0 11 -4 20 -10
20 -5 0 -10 9 -10 20 0 11 -4 20 -10 20 -5 0 -10 9 -10 20 0 11 -4 20 -10 20
-5 0 -10 7 -10 16 0 9 -14 29 -30 44 -16 15 -30 33 -30 40 0 6 -18 29 -40 50
-22 21 -40 43 -40 50 0 6 -16 27 -36 47 -28 28 -38 33 -45 22 -4 -7 -11 -10
-16 -6 -4 5 -1 12 6 16 10 7 -9 31 -73 95 -47 47 -91 86 -97 86 -6 0 -24 14
-39 30 -15 17 -35 30 -44 30 -9 0 -16 5 -16 10 0 6 -8 10 -18 10 -10 0 -24 9
-32 20 -8 11 -22 20 -32 20 -10 0 -18 5 -18 10 0 6 -8 10 -18 10 -10 0 -24 9
-32 20 -8 12 -26 20 -42 20 -15 0 -28 5 -28 10 0 6 -9 10 -20 10 -11 0 -20 5
-20 10 0 6 -9 10 -20 10 -11 0 -20 5 -20 10 0 6 -9 10 -20 10 -11 0 -20 5 -20
10 0 6 -18 10 -40 10 -22 0 -40 5 -40 10 0 6 -13 10 -30 10 -16 0 -30 5 -30
10 0 6 -18 10 -40 10 -22 0 -40 5 -40 10 0 6 -27 10 -60 10 -33 0 -60 4 -60
10 0 7 -337 10 -990 10 l-990 0 0 -2863z m1868 1874 c9 -5 38 -15 65 -23 26
-7 47 -16 47 -20 0 -4 13 -8 28 -8 16 0 34 -8 42 -20 8 -11 21 -20 28 -20 8 0
27 -13 42 -30 15 -16 33 -30 39 -30 15 0 61 -45 61 -60 0 -5 18 -29 40 -51 22
-23 40 -48 40 -55 0 -8 5 -14 10 -14 6 0 10 -9 10 -20 0 -11 5 -20 10 -20 6 0
10 -9 10 -20 0 -11 5 -20 10 -20 6 0 10 -13 10 -30 0 -16 5 -30 10 -30 6 0 10
-63 10 -170 0 -107 -4 -170 -10 -170 -5 0 -10 -13 -10 -30 0 -16 -4 -30 -10
-30 -5 0 -10 -13 -10 -30 0 -16 -3 -30 -8 -30 -4 0 -15 -18 -24 -40 -10 -21
-51 -73 -92 -114 -44 -44 -74 -81 -73 -92 2 -15 -4 -18 -25 -16 -19 2 -37 -6
-59 -28 -18 -16 -43 -30 -55 -30 -13 0 -24 -4 -24 -10 0 -5 -9 -10 -20 -10
-11 0 -20 -4 -20 -10 0 -5 -13 -10 -30 -10 -16 0 -30 -4 -30 -10 0 -6 -35 -10
-84 -10 -47 0 -88 -4 -91 -10 -4 -6 -130 -10 -346 -10 -219 0 -339 4 -339 10
0 6 -9 10 -20 10 -11 0 -20 5 -20 10 0 6 5 10 10 10 7 0 10 223 10 650 l0 650
425 0 c244 0 433 -4 443 -9z"/>
<path d="M14540 3330 l0 -2890 500 0 500 0 0 2890 0 2890 -500 0 -500 0 0
-2890z"/>
</g>
</svg>
